<svg width="34" height="32" viewBox="0 0 34 32" fill="none" xmlns="http://www.w3.org/2000/svg">
<rect x="1.81836" y="1" width="30.4091" height="29.6889" rx="4" stroke="#04182C" stroke-width="2"/>
<path d="M26.3604 11.0903C26.1416 10.2943 25.5002 9.66683 24.6869 9.4525C23.201 9.05469 17.2574 9.05469 17.2574 9.05469C17.2574 9.05469 11.3141 9.05469 9.8282 9.43742C9.0305 9.65152 8.3735 10.2944 8.1547 11.0903C7.76367 12.5441 7.76367 15.5591 7.76367 15.5591C7.76367 15.5591 7.76367 18.5893 8.1547 20.0279C8.37374 20.8238 9.01486 21.4513 9.82832 21.6656C11.3297 22.0635 17.2577 22.0635 17.2577 22.0635C17.2577 22.0635 23.201 22.0635 24.6869 21.6808C25.5004 21.4666 26.1416 20.8391 26.3606 20.0433C26.7516 18.5893 26.7516 15.5744 26.7516 15.5744C26.7516 15.5744 26.7672 12.5441 26.3604 11.0903ZM15.3651 18.3445V12.7737L20.3075 15.5591L15.3651 18.3445Z" fill="#04182C"/>
<path d="M20.5508 15.6223L15.4163 18.3568L15.4163 12.8879L20.5508 15.6223Z" fill="white"/>
</svg>
