<svg width="124" height="176" viewBox="0 0 124 176" fill="none" xmlns="http://www.w3.org/2000/svg">
<path d="M20.6758 25.9531V35.1803C20.6758 38.9863 21.0704 42.7181 21.8253 46.3309L63.3204 64.8381L98.4255 57.3959C101.48 50.5673 103.159 43.034 103.159 35.1845V25.9531H20.6758Z" fill="#F3F5F9"/>
<path d="M103.158 25.9531V35.1862C103.158 43.034 101.481 50.569 98.4248 57.3959L63.321 64.8381L61.9082 64.209V25.9531H103.158Z" fill="#D6E1F1"/>
<path d="M101.926 129.336C97.6349 109.387 82.3515 93.1105 61.9265 88L61.8904 88.0089C41.4624 93.114 26.1738 109.388 21.8779 129.336L61.9093 133.375L101.926 129.336Z" fill="#F3F5F9"/>
<path d="M101.924 129.336L61.9082 133.375V88.0069L61.9254 88C82.351 93.1116 97.6342 109.388 101.924 129.336Z" fill="#D6E1F1"/>
<path d="M10.3633 8.59369V25.9531C10.3633 28.8007 12.6719 31.1093 15.5195 31.1093H108.298C111.145 31.1093 113.454 28.8007 113.454 25.9531V8.59369H10.3633Z" fill="#00376F"/>
<path d="M113.454 8.59369V25.9531C113.454 28.7993 111.144 31.1093 108.297 31.1093H61.9082V8.59369H113.454Z" fill="#002F5F"/>
<path d="M101.924 129.336H79.0957C74.2966 124.537 71.0028 121.243 67.0645 117.305V86.4403C76.96 82.9035 85.4042 76.6623 91.6288 68.688C94.3342 65.223 96.6201 61.4314 98.4248 57.3958C67.9445 56.8011 56.0782 46.9183 21.827 46.3305C25.6646 64.7105 38.8244 80.0122 56.752 86.4262V117.305L44.7207 129.336H21.8751C21.0776 133.048 20.6582 136.891 20.6582 140.81V150.047H103.141V140.8C103.141 136.885 102.722 133.045 101.924 129.336Z" fill="#21AB21"/>
<path d="M103.141 140.8V150.047H61.9082V51.9474C72.836 54.5359 83.3548 57.1003 98.4248 57.3959C96.6201 61.4315 94.3341 65.2231 91.6288 68.6881C85.4035 76.6631 76.961 82.9021 67.0645 86.4393V117.305L79.0957 129.336H101.924C102.722 133.045 103.141 136.885 103.141 140.8Z" fill="#008000"/>
<path d="M113.454 167.406V150.047C113.454 147.199 111.145 144.891 108.298 144.891H15.5195C12.6719 144.891 10.3633 147.199 10.3633 150.047V167.406H113.454Z" fill="#00376F"/>
<path d="M113.454 150.047V167.406H61.9082V144.891H108.297C111.144 144.891 113.454 147.201 113.454 150.047Z" fill="#002F5F"/>
<path d="M5.20703 165.687C2.35941 165.687 0.0507812 167.996 0.0507812 170.844C0.0507812 173.691 2.35941 176 5.20703 176H118.61C121.458 176 123.766 173.691 123.766 170.844C123.766 167.996 121.458 165.687 118.61 165.687H5.20703Z" fill="#00264C"/>
<path d="M123.766 170.844C123.766 173.69 121.456 176 118.61 176H61.9082V165.687H118.61C121.456 165.687 123.766 167.997 123.766 170.844Z" fill="#001E3D"/>
<path d="M118.61 10.3124C121.458 10.3124 123.766 8.00382 123.766 5.15619C123.766 2.30856 121.458 -6.10352e-05 118.61 -6.10352e-05H5.20703C2.35941 -6.10352e-05 0.0507812 2.30856 0.0507812 5.15619C0.0507812 8.00382 2.35941 10.3124 5.20703 10.3124H118.61Z" fill="#00264C"/>
<path d="M123.766 5.15619C123.766 8.00244 121.456 10.3124 118.61 10.3124H61.9082V-6.10352e-05H118.61C121.456 -6.10352e-05 123.766 2.30994 123.766 5.15619Z" fill="#001E3D"/>
</svg>
