<svg width="24" height="27" viewBox="0 0 24 27" fill="none" xmlns="http://www.w3.org/2000/svg">
<path d="M1 5.88892H3.44446H23.0001" stroke="white" stroke-width="2" stroke-linecap="round" stroke-linejoin="round"/>
<path d="M20.5555 5.88891V23.0001C20.5555 23.6484 20.298 24.2702 19.8396 24.7286C19.3811 25.187 18.7594 25.4446 18.1111 25.4446H5.88879C5.24048 25.4446 4.61872 25.187 4.1603 24.7286C3.70188 24.2702 3.44434 23.6484 3.44434 23.0001V5.88891M7.11102 5.88891V3.44446C7.11102 2.79615 7.36856 2.17439 7.82698 1.71596C8.28541 1.25754 8.90716 1 9.55547 1H14.4444C15.0927 1 15.7145 1.25754 16.1729 1.71596C16.6313 2.17439 16.8888 2.79615 16.8888 3.44446V5.88891" stroke="white" stroke-width="2" stroke-linecap="round" stroke-linejoin="round"/>
<path d="M9.55566 12V19.3334" stroke="white" stroke-width="2" stroke-linecap="round" stroke-linejoin="round"/>
<path d="M14.4443 12V19.3334" stroke="white" stroke-width="2" stroke-linecap="round" stroke-linejoin="round"/>
</svg>
