<svg width="20" height="21" viewBox="0 0 20 21" fill="none" xmlns="http://www.w3.org/2000/svg">
<path d="M10 20.8108C9.98148 20.8108 9.95926 20.8108 9.94074 20.8108C9.83704 20.8034 7.34444 20.5774 4.87037 18.3034C2.64815 16.2589 0 12.0811 0 3.77743C0 3.37003 0.333333 3.03669 0.740741 3.03669C1.96667 3.03669 2.96296 2.0404 2.96296 0.814471C2.96296 0.407064 3.2963 0.0737305 3.7037 0.0737305H16.2963C16.7037 0.0737305 17.037 0.407064 17.037 0.814471C17.037 2.0404 18.0333 3.03669 19.2593 3.03669C19.6667 3.03669 20 3.37003 20 3.77743C20 12.0811 17.3519 16.2589 15.1296 18.3034C12.6556 20.5811 10.163 20.8034 10.0593 20.8108C10.0407 20.8108 10.0185 20.8108 10 20.8108ZM1.48889 4.4404C1.72593 17.9404 9.17778 19.2256 10.0037 19.3256C10.8111 19.2293 18.2778 17.9515 18.5148 4.4404C17.0704 4.1441 15.9259 2.99966 15.6333 1.55151H4.37407C4.07778 2.99966 2.93704 4.1404 1.49259 4.4404H1.48889Z" fill="#008000"/>
<path d="M9.38153 12.6626C9.19635 12.6626 9.01116 12.5959 8.87042 12.4552L6.52598 10.2071C6.22968 9.92557 6.21857 9.4552 6.50375 9.15891C6.78524 8.86261 7.25561 8.8515 7.5519 9.13668L9.36672 10.8774L13.5445 6.58853C13.8297 6.29594 14.3001 6.28853 14.5926 6.57372C14.8852 6.8589 14.8926 7.32927 14.6075 7.62187L9.91487 12.4367C9.77042 12.5848 9.57783 12.6589 9.38524 12.6589L9.38153 12.6626Z" fill="#008000"/>
</svg>
