<svg width="220" height="242" viewBox="0 0 220 242" fill="none" xmlns="http://www.w3.org/2000/svg">
<path d="M74.9707 0C77.5768 6.97122 83.0982 12.469 90.0987 15.0639C83.0982 17.6588 77.5768 23.157 74.9707 30.1278C72.3647 23.1566 66.8432 17.6588 59.8428 15.0639C66.8432 12.469 72.3647 6.97122 74.9707 0Z" fill="#FEE903"/>
<path d="M110.357 98.7895C112.963 105.761 118.485 111.259 125.485 113.853C118.485 116.448 112.963 121.947 110.357 128.917C107.751 121.946 102.23 116.448 95.2295 113.853C102.23 111.259 107.751 105.76 110.357 98.7895Z" fill="#FEE903"/>
<path d="M156.402 131.566C159.008 138.537 164.53 144.035 171.53 146.63C164.53 149.225 159.008 154.723 156.402 161.694C153.796 154.723 148.275 149.225 141.274 146.63C148.275 144.035 153.796 138.537 156.402 131.566Z" fill="#FEE903"/>
<path d="M18.3506 88.0667C20.9566 95.0379 26.4781 100.536 33.4785 103.131C26.4781 105.725 20.9566 111.224 18.3506 118.194C15.7446 111.223 10.2231 105.725 3.22266 103.131C10.2231 100.536 15.7446 95.0379 18.3506 88.0667Z" fill="#FEE903"/>
<path d="M3.22264 151.104C15.2465 149.523 26.8794 153.526 35.8358 161.617C39.7343 165.138 43.0764 169.219 45.6678 173.793C46.8112 175.811 47.711 177.7 48.4058 179.69C48.7418 180.653 49.0374 181.631 49.2776 182.622C49.5591 183.785 49.6876 184.535 49.7391 185.133C49.8117 185.976 49.8186 186.809 49.7958 187.655C49.7812 188.192 49.7004 188.509 49.7554 188.214C49.6734 188.658 49.5728 189.088 49.4538 189.523C49.37 189.829 49.0684 190.493 49.3735 189.841C49.2136 190.182 49.0284 190.496 48.8419 190.823C48.4561 191.499 49.0018 190.719 48.686 191.038C48.3169 191.412 47.916 191.735 48.2846 191.479C44.5734 194.056 40.0763 192.955 37.3199 189.851C36.1447 188.527 35.4297 186.728 35.468 185.095C35.5045 183.528 36.62 181.777 38.4006 180.575C43.4782 177.15 49.9492 177.801 55.3345 180.091C62.2761 183.043 68.1799 188.41 72.8429 194.24C77.5015 200.065 81.2007 206.999 82.3694 214.423C82.6393 216.138 84.7929 217.106 86.3337 216.674C88.1659 216.161 88.8573 214.442 88.5844 212.709C87.3495 204.865 83.4093 197.493 78.6239 191.249C73.6305 184.733 67.3777 178.825 59.9575 175.169C53.0808 171.781 45.2566 170.429 38.0212 173.525C31.7722 176.199 27.3044 182.321 29.6741 189.246C31.6927 195.146 37.6508 199.452 43.9147 199.363C49.2097 199.289 54.0974 196.408 55.6688 191.236C57.0017 186.849 56.0211 181.846 54.503 177.643C52.447 171.949 49.2329 166.789 45.3383 162.175C35.0288 149.963 19.3187 142.542 3.22264 144.658C1.49745 144.885 0 145.977 0 147.881C0 149.446 1.48456 151.332 3.22264 151.104Z" fill="#BBEC6C"/>
<path d="M216.777 144.657C202.261 142.748 188.063 148.576 177.808 158.762C173.443 163.097 169.66 168.222 167.078 173.82C165.04 178.24 163.367 183.242 163.798 188.18C164.23 193.13 166.817 196.831 171.542 198.548C177.749 200.804 184.684 198.127 188.45 192.89C192.206 187.666 191.66 180.574 186.655 176.356C180.773 171.398 172.471 170.752 165.344 173.004C156.744 175.722 149.277 181.744 143.524 188.557C137.732 195.416 132.829 203.726 131.415 212.708C131.143 214.439 131.86 216.155 133.666 216.672C135.194 217.109 137.36 216.139 137.63 214.422C139.692 201.322 149.442 188.795 160.708 182.136C165.64 179.22 171.634 177.133 177.365 178.69C179.798 179.352 182.426 180.597 183.795 182.76C184.8 184.345 184.81 185.942 183.985 187.867C182.547 191.223 178.209 193.707 174.288 192.661C173.384 192.42 172.585 192.055 171.805 191.542C171.197 191.142 172.186 191.892 171.854 191.572C171.723 191.446 171.585 191.33 171.462 191.197C170.899 190.584 171.597 191.568 171.158 190.822C170.987 190.532 170.826 190.244 170.675 189.942C170.818 190.23 170.678 190.044 170.546 189.522C170.457 189.168 170.368 188.817 170.289 188.459C170.246 188.268 170.184 187.685 170.271 188.439C170.24 188.179 170.213 187.916 170.204 187.654C170.135 185.462 170.235 184.685 170.684 182.78C171.162 180.756 171.885 178.718 172.644 177.074C174.794 172.415 177.746 168.155 181.274 164.436C190.545 154.666 203.27 149.327 216.777 151.103C218.505 151.33 219.999 149.459 219.999 147.88C219.999 145.949 218.511 144.884 216.777 144.657Z" fill="#BBEC6C"/>
<path d="M67.3792 163.419C72.3672 163.419 76.4108 159.393 76.4108 154.426C76.4108 149.459 72.3672 145.432 67.3792 145.432C62.3912 145.432 58.3477 149.459 58.3477 154.426C58.3477 159.393 62.3912 163.419 67.3792 163.419Z" fill="#AF66DA"/>
<path d="M67.3799 145.432C65.8244 145.432 64.3609 145.824 63.083 146.514C65.9026 148.035 67.8177 151.008 67.8177 154.425C67.8177 157.843 65.9026 160.815 63.083 162.337C64.3609 163.027 65.8244 163.419 67.3799 163.419C72.3677 163.419 76.4114 159.392 76.4114 154.425C76.4114 149.459 72.3677 145.432 67.3799 145.432Z" fill="#925CB4"/>
<path d="M137.647 73.0062C142.635 73.0062 146.678 68.9797 146.678 64.0128C146.678 59.046 142.635 55.0195 137.647 55.0195C132.659 55.0195 128.615 59.046 128.615 64.0128C128.615 68.9797 132.659 73.0062 137.647 73.0062Z" fill="#FE5694"/>
<path d="M137.646 55.0195C136.091 55.0195 134.627 55.4114 133.35 56.101C136.169 57.6226 138.084 60.5947 138.084 64.0128C138.084 67.4306 136.169 70.4027 133.35 71.9247C134.627 72.6143 136.091 73.0062 137.646 73.0062C142.634 73.0062 146.678 68.9796 146.678 64.0128C146.678 59.0461 142.634 55.0195 137.646 55.0195Z" fill="#FE2AA8"/>
<path d="M207.744 103.131C212.732 103.131 216.776 99.1046 216.776 94.1377C216.776 89.1709 212.732 85.1444 207.744 85.1444C202.756 85.1444 198.713 89.1709 198.713 94.1377C198.713 99.1046 202.756 103.131 207.744 103.131Z" fill="#FE5694"/>
<path d="M207.744 85.1444C206.189 85.1444 204.725 85.5363 203.447 86.2259C206.267 87.7474 208.182 90.7196 208.182 94.1377C208.182 97.5555 206.267 100.528 203.447 102.049C204.725 102.739 206.189 103.131 207.744 103.131C212.732 103.131 216.776 99.104 216.776 94.1373C216.776 89.171 212.732 85.1444 207.744 85.1444Z" fill="#FE2AA8"/>
<path d="M58.3489 130.624C63.3369 130.624 67.3805 126.597 67.3805 121.63C67.3805 116.663 63.3369 112.637 58.3489 112.637C53.361 112.637 49.3174 116.663 49.3174 121.63C49.3174 126.597 53.361 130.624 58.3489 130.624Z" fill="#FE5694"/>
<path d="M58.3486 112.637C56.7932 112.637 55.3296 113.029 54.0518 113.719C56.8714 115.24 58.7865 118.213 58.7865 121.631C58.7865 125.049 56.8714 128.021 54.0518 129.543C55.3296 130.232 56.7932 130.624 58.3486 130.624C63.3364 130.624 67.3802 126.598 67.3802 121.631C67.3797 116.664 63.3364 112.637 58.3486 112.637Z" fill="#FE2AA8"/>
<path d="M198.713 59.8182C203.701 59.8182 207.745 55.7918 207.745 50.8249C207.745 45.8581 203.701 41.8316 198.713 41.8316C193.725 41.8316 189.682 45.8581 189.682 50.8249C189.682 55.7918 193.725 59.8182 198.713 59.8182Z" fill="#AF66DA"/>
<path d="M198.714 41.8316C197.158 41.8316 195.695 42.2235 194.417 42.9131C197.237 44.4351 199.152 47.4068 199.152 50.8249C199.152 54.2426 197.237 57.2148 194.417 58.7367C195.695 59.4264 197.158 59.8182 198.714 59.8182C203.702 59.8182 207.745 55.7917 207.745 50.8249C207.745 45.8582 203.702 41.8316 198.714 41.8316Z" fill="#925CB4"/>
<path d="M99.4164 70.257C91.7555 70.257 85.5565 64.0842 85.5565 56.4555L71.0752 55.9962C71.0752 71.849 83.9576 84.6773 99.8779 84.6773L99.4164 70.257Z" fill="#C4E2FF"/>
<path d="M76.9627 56.4555C76.9627 64.0842 83.1618 70.257 90.8227 70.257L91.2421 83.3668C93.968 84.2171 96.8684 84.6773 99.8779 84.6773L99.4164 70.257C91.7555 70.257 85.5565 64.0842 85.5565 56.4555L71.0752 55.9962C71.0752 56.0877 71.0812 56.1775 71.0821 56.2691L76.9627 56.4555Z" fill="#B3DAFE"/>
<path d="M172.629 117.705C180.28 118.084 186.167 124.556 185.789 132.175L200.23 133.35C201.014 117.517 188.782 104.067 172.882 103.28L172.629 117.705Z" fill="#C4E2FF"/>
<path d="M172.881 103.28L172.851 105.017C184.139 109.164 191.973 120.105 191.653 132.653L200.23 133.35C201.014 117.517 188.782 104.067 172.881 103.28Z" fill="#B3DAFE"/>
<path d="M125.048 11.9539C125.048 19.6147 118.875 25.8138 111.246 25.8138L110.787 40.2951C126.64 40.2951 139.468 27.4127 139.468 11.4924L125.048 11.9539Z" fill="#C4E2FF"/>
<path d="M130.868 11.7674C130.748 24.5436 122.372 35.3167 110.829 38.9665L110.787 40.2951C126.64 40.2951 139.468 27.4127 139.468 11.4924L130.868 11.7674Z" fill="#B3DAFE"/>
<path d="M104.655 184.069C100.345 153.364 92.16 121.955 75.2136 95.617C72.2642 91.0331 69.036 86.597 65.4945 82.4523C59.6628 75.6271 52.2086 69.0414 42.9567 67.9156C39.0491 67.4399 34.4308 67.8992 31.7015 71.0802C28.5862 74.7106 29.8848 79.8995 33.4073 82.7071C40.9401 88.7111 50.6519 81.8365 53.5471 74.3059C57.5642 63.8563 52.4544 51.5106 47.4451 42.2999C42.4681 33.1467 35.6202 25.2199 27.3741 18.8764C25.9841 17.8069 23.7785 18.674 22.9651 20.0327C21.976 21.6836 22.749 23.3864 24.1214 24.4417C30.3535 29.2357 35.649 35.2758 39.7851 41.9471C44.07 48.8586 48.1752 57.2375 48.4493 65.5055C48.5718 69.1995 47.8263 73.0426 45.1897 75.7917C43.3795 77.6798 40.2045 79.5515 37.6522 77.8744C36.8289 77.3334 35.9283 76.2046 36.599 75.2443C37.3205 74.2118 39.3292 74.1954 40.4361 74.192C44.0584 74.1808 47.4391 75.5292 50.471 77.4301C56.2232 81.0369 61.1663 86.9721 64.7851 91.8362C67.2983 95.2144 69.632 98.7249 71.8032 102.332C77.561 111.895 82.1779 122.105 85.9149 132.614C92.0289 149.809 95.9064 167.732 98.4398 185.781C98.6813 187.501 100.883 188.458 102.404 188.032C104.259 187.513 104.899 185.806 104.655 184.069Z" fill="#BBEC6C"/>
<path d="M122.912 185.782C127.301 157.734 134.4 129.054 147.868 103.86C153.033 94.1986 159.089 84.6725 168.168 78.3419C171.008 76.3611 174.201 74.7119 177.683 74.2861C179.033 74.1211 184.316 73.7933 183.575 76.4169C182.766 79.2842 178.784 78.6169 176.928 77.5079C173.961 75.7346 172.29 72.5334 171.749 69.1999C170.35 60.5577 174.928 51.0053 179.159 43.7329C183.458 36.344 189.105 29.665 195.895 24.4417C197.284 23.3727 197.99 21.6819 197.051 20.0327C196.274 18.6667 194.019 17.8173 192.642 18.8764C185.497 24.373 179.418 31.0202 174.666 38.694C169.824 46.5121 165.578 55.8174 165.14 65.1226C164.752 73.3713 169.07 83.2378 178.108 84.7378C182.19 85.4154 186.502 83.9429 188.778 80.3391C191.235 76.4483 190.067 71.5391 186.074 69.2395C178.862 65.0848 169.179 69.4599 163.3 73.9729C157.396 78.5052 152.5 84.3824 148.334 90.5244C141.327 100.857 136.202 112.493 131.855 124.153C124.646 143.491 119.884 163.702 116.697 184.069C116.426 185.8 117.14 187.516 118.948 188.033C120.474 188.469 122.643 187.499 122.912 185.782Z" fill="#BBEC6C"/>
<path d="M163.711 23.2029C167.858 23.2029 167.865 16.7576 163.711 16.7576C159.563 16.7576 159.557 23.2029 163.711 23.2029Z" fill="#FFC344"/>
<path d="M89.8045 40.8201C93.9518 40.8201 93.9587 34.3748 89.8045 34.3748C85.6572 34.3748 85.6503 40.8201 89.8045 40.8201Z" fill="#FFC344"/>
<path d="M111.289 60.1559C115.436 60.1559 115.443 53.7106 111.289 53.7106C107.142 53.7106 107.135 60.1559 111.289 60.1559Z" fill="#FFC344"/>
<path d="M127.187 94.9605C131.335 94.9605 131.341 88.5152 127.187 88.5152C123.04 88.5152 123.033 94.9605 127.187 94.9605Z" fill="#FFC344"/>
<path d="M158.554 112.148C162.702 112.148 162.709 105.703 158.554 105.703C154.407 105.703 154.4 112.148 158.554 112.148Z" fill="#FFC344"/>
<path d="M209.687 174.882C213.835 174.882 213.841 168.437 209.687 168.437C205.54 168.437 205.533 174.882 209.687 174.882Z" fill="#FFC344"/>
<path d="M158.125 210.976C162.272 210.976 162.279 204.53 158.125 204.53C153.977 204.53 153.971 210.976 158.125 210.976Z" fill="#FFC344"/>
<path d="M110.429 210.116C114.577 210.116 114.584 203.671 110.429 203.671C106.282 203.671 106.275 210.116 110.429 210.116Z" fill="#FFC344"/>
<path d="M82.4998 180.468C86.6471 180.468 86.654 174.023 82.4998 174.023C78.3525 174.023 78.3456 180.468 82.4998 180.468Z" fill="#FFC344"/>
<path d="M33.9461 140.507C38.0934 140.507 38.1003 134.062 33.9461 134.062C29.7988 134.062 29.7919 140.507 33.9461 140.507Z" fill="#FFC344"/>
<path d="M19.3367 55.4294C23.484 55.4294 23.4909 48.9841 19.3367 48.9841C15.1894 48.9841 15.1825 55.4294 19.3367 55.4294Z" fill="#FFC344"/>
<path d="M213.125 74.3356C217.272 74.3356 217.279 67.8903 213.125 67.8903C208.977 67.8903 208.971 74.3356 213.125 74.3356Z" fill="#FFC344"/>
<path d="M61.0154 212.265C65.1627 212.265 65.1696 205.819 61.0154 205.819C56.8681 205.819 56.8612 212.265 61.0154 212.265Z" fill="#FFC344"/>
<path d="M7.73514 175.741C11.8825 175.741 11.8893 169.296 7.73514 169.296C3.58782 169.296 3.58094 175.741 7.73514 175.741Z" fill="#FFC344"/>
<circle cx="109" cy="146" r="96" fill="#CBF0CB"/>
<path d="M73.333 150.665L95.7722 173.059L150 118.941" stroke="#008000" stroke-width="10" stroke-linecap="round" stroke-linejoin="round"/>
</svg>
