<svg width="83" height="84" viewBox="0 0 83 84" fill="none" xmlns="http://www.w3.org/2000/svg">
<path d="M57.2292 57.8784C58.0001 59.7954 58.7172 61.4642 59.3491 63.1647C59.8645 64.5449 59.627 65.1493 58.3317 65.8078C57.6908 66.1325 56.9872 66.3626 56.2925 66.5475C52.6218 67.5082 48.9466 68.4284 45.276 69.3846C44.2855 69.6417 43.2278 69.8266 42.3583 70.3228C41.6277 70.7377 40.9778 71.4685 40.561 72.2127C40.0635 73.1058 40.6462 74.1026 41.6905 74.2108C42.5062 74.292 43.4071 74.2469 44.1779 73.9808C48.4447 72.4968 52.6935 70.9543 56.9289 69.3756C57.767 69.0644 58.5289 68.5367 59.2908 68.045C60.1872 67.4632 60.3889 67.0392 60.5637 65.7537C61.469 66.322 61.4377 67.0527 60.8864 67.7202C60.3934 68.3111 59.7838 68.8524 59.125 69.2448C55.8308 71.1978 52.2184 72.4066 48.606 73.5884C46.7237 74.2063 44.7785 74.6303 42.8961 75.2437C42.5197 75.3655 42.2911 75.9519 41.9908 76.3262C42.049 76.4571 42.1028 76.5879 42.1611 76.7232C42.7796 76.7232 43.4295 76.8494 44.0121 76.7006C47.8621 75.7173 51.6985 74.6934 55.526 73.6335C56.2118 73.444 56.8527 73.0561 57.4846 72.7043C59.2415 71.7346 59.5553 71.3377 60.241 69.2132C60.3754 69.6823 60.501 69.9078 60.4965 70.1333C60.483 71.1482 60.4606 72.1134 60.7788 73.1418C61.1732 74.4273 60.3889 75.5008 59.3939 76.2766C58.7978 76.7412 58.6006 77.2103 58.6096 77.959C58.6409 81.2878 56.5031 83.6016 53.1327 83.9444C52.3529 84.0211 51.5641 84.0031 50.7797 83.9805C48.1623 83.9038 46.8088 82.8349 46.1096 80.327C42.0311 79.9121 40.5297 78.4146 41.1975 75.4287C39.1313 73.62 38.9924 73.0967 40.2294 70.625C40.5476 69.9935 40.5207 69.538 40.2204 68.9426C39.2434 66.9941 38.3067 65.0275 37.3969 63.0429C37.0742 62.3392 36.729 61.8206 35.864 61.7078C31.288 61.1214 27.6891 58.8166 25.1434 55.0188C20.6929 48.3748 19.2273 41.1265 22.4139 33.6256C25.4571 26.4675 31.0953 22.1239 38.8176 20.8158C45.1281 19.7423 50.959 21.1722 56.0863 24.961C61.2539 28.7768 63.8444 34.0631 64.1581 40.5266C64.4226 45.9166 62.948 50.7113 59.6718 54.9556C58.8919 55.9524 58.0494 56.8996 57.2292 57.8784ZM49.982 42.1143C50.3629 41.8436 50.6453 41.6182 50.9501 41.4287C52.5949 40.4184 53.7288 40.689 54.7731 42.2947C55.7143 43.7471 55.5754 45.2355 54.7014 46.5751C53.6168 48.2395 52.3887 49.8272 51.1204 51.3563C50.0537 52.6418 49.4486 54.0039 49.6996 55.6908C49.852 56.7102 49.9416 57.7386 50.1657 58.7399C50.7573 61.3605 51.4027 63.972 52.0481 66.6648C54.3428 66.0108 56.7362 65.88 58.8023 64.2472C58.1256 62.5873 57.5653 60.9229 56.7855 59.3713C56.1491 58.0994 56.5479 57.1567 57.3143 56.214C57.9238 55.4653 58.6141 54.7797 59.1922 54.0039C63.0556 48.8214 64.1716 42.9713 62.7374 36.7603C60.5234 27.1891 52.5814 21.9841 43.4787 21.4699C37.0204 21.1045 31.548 23.3778 27.1109 28.1499C24.0946 31.3974 22.1495 35.0915 21.8716 39.6335C21.6386 43.4088 22.1271 47.0578 23.6196 50.4857C25.3227 54.3918 27.7742 57.7792 31.8438 59.5112C33.6455 60.278 35.5996 60.6794 37.5761 61.2748C38.8266 63.9044 40.1398 66.6693 41.4843 69.4929C43.2995 68.9561 44.8861 68.487 46.6743 67.9638C45.4373 64.7569 44.2945 61.6356 43.0395 58.5595C41.8384 55.6187 39.9291 53.2642 37.1548 51.6314C36.124 51.027 35.138 50.2827 34.2775 49.4528C32.3234 47.5584 32.5698 45.655 34.8511 44.2342C36.7783 43.0389 39.0327 42.872 41.1482 42.3082C42.0759 42.0602 43.156 42.4165 44.2003 42.5022C46.4457 40.0395 47.4318 39.9492 49.982 42.1143ZM51.1607 66.8632C50.4077 63.5841 49.7489 60.6388 49.0453 57.7025C48.3461 54.7842 48.7719 52.2177 50.9949 50.0211C51.9764 49.0514 52.81 47.9057 53.5764 46.751C54.2935 45.673 54.6924 44.4507 54.1412 43.1336C53.693 42.0601 52.9355 41.6452 52.0212 41.9429C51.0038 42.2766 50.596 43.048 50.838 44.1936C50.8873 44.4282 51.0755 44.7303 50.9904 44.8792C50.7439 45.3167 50.4526 45.8264 50.0447 46.0294C49.861 46.1241 49.1932 45.6369 49.0363 45.2806C48.8705 44.9063 48.9422 44.3334 49.099 43.923C49.4352 43.057 49.0542 42.5202 48.4312 42.0556C47.1629 41.0994 46.0379 41.564 45.3387 43.305C45.769 43.8147 46.3382 44.2613 46.5757 44.8476C46.7729 45.3303 46.773 46.1241 46.4906 46.503C46.2038 46.8909 45.4015 47.175 44.9398 47.0578C44.5006 46.9495 44.0435 46.309 43.8911 45.8084C43.6849 45.1453 43.7656 44.3921 43.7208 43.6569C42.5689 43.0705 41.5023 42.7593 40.2608 43.499C40.4804 43.7877 40.6283 43.9681 40.7583 44.162C41.1258 44.7078 41.5919 45.2175 41.825 45.8174C42.197 46.7736 41.8025 47.59 41.063 48.244C40.3145 48.9026 39.2747 49.11 38.5532 48.7221C37.7285 48.2846 37.6075 47.5223 37.6747 46.6969C37.7375 45.876 37.8181 45.0596 37.8943 44.1711C36.6304 44.2162 35.7072 44.7258 34.8736 45.4475C33.6052 46.5436 33.5155 47.5133 34.757 48.65C35.6444 49.4619 36.6439 50.161 37.6658 50.8014C40.2921 52.4568 42.3225 54.6534 43.5729 57.4995C44.5679 59.7683 45.4239 62.0957 46.3113 64.4096C46.7416 65.5236 47.1046 66.6648 47.5349 67.8871C48.8122 67.5263 49.9506 67.206 51.1607 66.8632ZM42.5151 77.9636C43.295 79.3122 44.5275 79.3438 45.6928 79.2039C49.3949 78.7709 53.0879 78.2026 56.5748 76.8134C57.5519 76.4255 58.4393 75.7308 59.2595 75.0407C60.0304 74.3912 60.2231 73.4756 59.9093 72.3751C54.5849 75.8211 48.5567 76.5202 42.5151 77.9636ZM47.0508 80.2594C47.2749 81.5945 47.9696 82.2394 48.8794 82.6544C51.1024 83.6783 54.791 83.0784 56.5255 81.3374C57.5563 80.3 58.2465 79.0596 57.8835 77.6388C54.2353 78.5228 50.6946 79.3798 47.0508 80.2594ZM39.1986 44.4417C38.5039 45.5648 38.477 46.6293 38.7414 47.7614C39.7767 48.0816 40.4938 47.8245 40.8613 46.9044C41.2199 46.0113 40.6014 45.0912 39.1986 44.4417ZM44.8457 44.383C44.792 44.9333 44.6889 45.1904 44.765 45.3754C44.8861 45.6686 45.1012 45.9256 45.3208 46.1557C45.3611 46.1963 45.7466 46.0248 45.7466 45.9572C45.7376 45.6369 45.6973 45.2987 45.5718 45.01C45.5001 44.8296 45.2536 44.7213 44.8457 44.383Z" fill="#024D99"/>
<path d="M83 21.7224C80.5036 23.2109 78.2313 24.5144 76.0128 25.8991C73.8077 27.2703 72.1359 29.3993 69.5185 30.7389C71.8894 26.9546 80.0868 21.4608 83 21.7224Z" fill="#024D99"/>
<path d="M35.4428 0C36.1957 4.5646 36.9128 8.92626 37.6299 13.2879C36.6798 12.485 36.5318 11.407 36.3212 10.3876C35.7834 7.78509 35.3128 5.1645 34.8556 2.54391C34.7122 1.6779 34.5509 0.76227 35.4428 0Z" fill="#024D99"/>
<path d="M70.128 45.416C72.0373 45.2446 80.1361 47.3149 81.2655 48.2215C80.4767 48.6139 80.4812 48.6094 77.6531 47.82C76.3847 47.4637 75.1208 47.0939 73.8345 46.8187C72.5527 46.5436 71.2844 46.2775 70.128 45.416Z" fill="#024D99"/>
<path d="M10.1694 36.5078C6.80352 35.9575 3.43312 35.4072 0 34.8434C0.076192 34.0089 0.775385 34.0811 1.30873 34.1443C2.97151 34.3428 4.62979 34.6044 6.28361 34.8795C7.05001 35.0058 7.81645 35.1862 8.56044 35.4117C9.15653 35.5921 9.71676 35.8808 10.2949 36.1244C10.2501 36.2552 10.2098 36.3815 10.1694 36.5078Z" fill="#024D99"/>
<path d="M57.6056 14.3974C58.7261 10.974 61.5632 7.91139 64.1716 7.01381C64.1178 7.33405 64.1626 7.72195 64.0282 7.79862C61.9217 9.00292 60.5323 10.9018 59.1071 12.7782C58.6634 13.3646 58.1076 13.8607 57.6056 14.3974Z" fill="#024D99"/>
<path d="M16.0407 53.6837C14.4048 56.5658 10.761 60.3997 9.4747 60.7245C9.8467 59.4345 13.7056 55.2127 16.0407 53.6837Z" fill="#024D99"/>
<path d="M12.7106 14.2306C15.0143 14.2757 19.3797 17.3428 20.4688 19.6657C17.9903 17.9292 15.5073 16.1926 12.7106 14.2306Z" fill="#024D99"/>
</svg>
