<svg width="84" height="79" viewBox="0 0 84 79" fill="none" xmlns="http://www.w3.org/2000/svg">
<path d="M60.0851 79C60.0851 76.2947 60.0851 73.5894 60.0851 70.8944C58.3005 70.6678 57.7846 70.2524 57.7393 69.0336C57.7045 68.014 57.9763 67.7908 59.6948 67.4406C60.2838 65.0718 60.8416 62.6926 61.469 60.334C62.4519 56.6297 63.5254 52.9494 64.4805 49.2416C66.056 43.1203 67.8895 37.0574 68.855 30.7953C69.085 29.2985 69.458 27.8222 69.81 26.1297C64.0657 26.4318 58.5027 27.1081 52.9326 27.7158C47.3487 28.3235 41.7891 29.0994 36.1041 30.3834C36.2609 29.889 36.3446 29.6212 36.4492 29.2916C32.1897 26.0095 27.993 22.597 23.6046 19.4488C20.3874 17.1417 16.9053 15.1883 13.5591 13.0494C10.0212 10.787 6.47976 8.52457 2.99065 6.18661C2.0321 5.54461 1.24785 4.652 0.407812 3.84864C0.22656 3.67699 0.149882 3.3989 0 3.11738C3.9283 3.56026 7.74505 3.30964 11.5618 3.01782C13.8065 2.84617 16.0478 2.65048 18.2891 2.43076C22.2069 2.04281 26.1213 1.62397 30.0391 1.21543C32.6045 0.947642 35.1699 0.679855 37.7388 0.418937C39.1819 0.271312 40.6249 0.106524 42.068 0.00353038C42.4026 -0.0205016 42.8209 0.0790571 43.0892 0.274746C46.8502 2.98692 51.0191 5.03307 55.0484 7.29894C58.5898 9.29016 62.173 11.2093 65.704 13.2211C71.1415 16.3212 76.5512 19.466 81.9679 22.6073C82.6058 22.9781 83.2018 23.421 84 23.9497C79.5593 25.371 75.1396 25.601 70.563 26.1194C69.2175 33.0818 67.7605 40.0648 65.8155 46.9414C63.881 53.7767 62.1347 60.6636 60.2524 67.729C60.5383 67.9316 60.8938 68.0998 61.1204 68.371C61.4655 68.7864 61.6119 69.3083 61.1901 69.7649C60.7544 70.2352 60.845 70.7536 60.8381 71.3132C60.8171 73.3937 60.7439 75.4707 60.6498 77.5478C60.6289 78.0353 60.4581 78.5159 60.357 78.9966C60.2594 78.9931 60.1723 78.9966 60.0851 79ZM2.10531 4.17823C2.04954 4.26749 1.99378 4.35674 1.94149 4.44257C2.69439 5.04337 3.40197 5.71284 4.20715 6.23124C8.40732 8.93655 12.6319 11.6007 16.8425 14.2888C19.5578 16.0225 22.3603 17.6396 24.9466 19.5415C28.962 22.4974 32.838 25.6422 36.7454 28.7389C37.2299 29.1234 37.6656 29.3157 38.2721 29.1783C38.8194 29.0547 39.3806 28.9758 39.9348 28.8865C42.8453 28.4127 45.7488 27.8703 48.6697 27.4927C51.8765 27.0772 55.1077 26.806 58.3284 26.4902C64.5328 25.8791 70.7407 25.3023 76.9416 24.6706C78.6914 24.4921 80.4272 24.1591 82.1666 23.8947C82.1875 23.7952 82.2049 23.699 82.2258 23.5995C81.8075 23.3351 81.3997 23.057 80.971 22.8133C72.602 18.055 64.2365 13.2898 55.8606 8.54517C51.5105 6.08018 47.0106 3.86924 42.8906 1.02317C42.6048 0.827484 42.2004 0.703891 41.8519 0.707324C41.0084 0.717624 40.1648 0.803448 39.3283 0.896143C36.4422 1.21542 33.563 1.56904 30.6769 1.87802C27.0414 2.26596 23.4025 2.65735 19.76 2.98693C15.9781 3.32681 12.1892 3.61862 8.40036 3.88298C6.3055 4.02717 4.20365 4.0821 2.10531 4.17823ZM59.6774 68.5049C59.1824 68.4225 58.541 68.0243 58.3981 68.9134C58.3005 69.5142 58.8791 70.1013 59.4578 70.0876C60.0573 70.0704 60.7021 69.5177 60.6603 68.9924C60.608 68.3641 60.2176 68.2646 59.6774 68.5049Z" fill="#024D99"/>
<path d="M15.8456 18.5322C13.6497 24.6397 12.4123 30.7953 9.97932 36.5836C10.3732 33.3118 11.628 30.2598 12.4715 27.1081C13.3116 23.9531 14.3189 20.8427 15.2705 17.6533C16.5079 18.0309 17.5013 18.6043 18.432 19.3115C21.7363 21.8245 25.0058 24.3822 28.366 26.8266C30.8164 28.6084 33.3922 30.2186 35.8949 31.9317C36.4805 32.3299 37.0835 32.4192 37.7598 32.3471C41.953 31.8939 46.1496 31.4476 50.3463 31.0116C52.9536 30.7404 55.5643 30.4966 58.175 30.2254C59.7575 30.0606 61.3365 29.8375 62.9224 29.7002C63.4523 29.6555 63.9995 29.8032 64.5084 29.8615C64.606 32.4604 62.0441 45.9904 61.0855 47.8546C60.8241 47.343 60.9426 46.9311 61.0193 46.5191C61.8803 41.8947 62.7482 37.2702 63.5917 32.6389C63.7137 31.9626 63.7311 31.2691 63.8078 30.5104C62.8841 30.5104 62.0545 30.4417 61.2389 30.5207C56.6658 30.9738 52.0996 31.4717 47.5265 31.9454C44.9645 32.2098 42.3991 32.4638 39.8372 32.7213C39.7431 32.7316 39.642 32.7076 39.5583 32.7419C37.6796 33.4629 36.0553 32.7659 34.5425 31.7806C31.883 30.0503 29.2235 28.3132 26.6546 26.4558C23.4792 24.1591 20.4013 21.7353 17.2678 19.3802C16.8669 19.0746 16.4033 18.8583 15.8456 18.5322Z" fill="#024D99"/>
<path d="M60.4477 49.6398C59.6007 50.0895 58.7745 50.5805 57.9031 50.9753C54.8009 52.3932 51.5314 53.1107 48.1155 53.2446C41.5591 53.5021 35.2362 52.3726 29.0771 50.2063C24.8246 48.7094 20.6663 47.0238 16.9297 44.4798C14.0959 42.5504 11.5444 40.3085 9.34146 37.6925C9.18113 37.5037 9.09745 37.2531 8.97546 37.0265C9.5471 36.6797 9.71442 37.1089 9.94447 37.3595C11.9522 39.567 14.1098 41.6131 16.5567 43.3572C20.0458 45.8428 23.8904 47.6623 27.9338 49.0424C30.8931 50.0518 33.9081 50.9787 36.9615 51.6448C42.0889 52.764 47.3034 52.939 52.483 51.9984C54.299 51.6688 56.0279 50.8517 57.7881 50.2372C58.6142 49.9488 59.4159 49.6021 60.2316 49.2828C60.3013 49.4064 60.3745 49.5231 60.4477 49.6398Z" fill="#024D99"/>
<path d="M58.0252 70.3794C57.5197 71.1141 57.0596 71.581 56.847 72.1372C56.4218 73.2461 56.129 74.403 55.7944 75.5463C55.5922 76.2363 55.4179 76.9367 54.9961 77.6405C54.9543 77.4173 54.8602 77.1907 54.8741 76.971C54.9683 75.1583 55.4807 73.4383 56.1882 71.787C56.4566 71.1518 56.7808 70.4206 58.0252 70.3794Z" fill="#024D99"/>
<path d="M59.4612 71.4265C59.0011 73.5962 58.541 75.766 58.0774 77.9357C57.9694 77.9323 57.8613 77.9289 57.7533 77.9254C57.7533 77.4723 57.6975 77.0156 57.7637 76.5728C57.9555 75.2544 58.1541 73.9327 58.433 72.6281C58.534 72.144 58.8617 71.708 59.0848 71.248C59.2068 71.3063 59.3358 71.3681 59.4612 71.4265Z" fill="#024D99"/>
</svg>
