<svg width="70" height="68" viewBox="0 0 70 68" fill="none" xmlns="http://www.w3.org/2000/svg">
<path d="M70 33.0321C68.3232 35.1828 66.597 37.5552 64.6999 39.7857C58.5591 47.0094 52.3508 54.1755 46.1785 61.3681C45.3559 62.326 44.5512 63.2971 43.8005 64.3082C43.4948 64.7206 43.279 65.2349 43.1486 65.7316C42.6136 67.7714 41.3145 68.4898 39.368 67.665C38.6037 67.3413 37.871 66.8668 37.2281 66.3436C33.398 63.2306 29.6488 60.0201 25.7692 56.9692C21.7547 53.8074 17.6234 50.7964 13.546 47.7101C10.2823 45.2401 7.00958 42.7834 3.78633 40.2735C2.98614 39.6527 2.3253 38.85 1.64649 38.0918C1.4397 37.8612 1.37673 37.502 1.1115 36.8856C1.65995 37.094 1.98362 37.1162 2.12748 37.2847C4.54154 40.1893 7.74233 42.1581 10.7363 44.3754C18.6618 50.2466 26.6368 56.0645 34.0183 62.6186C35.5873 64.011 37.3225 65.2305 39.0128 66.4854C39.7456 67.0309 40.5637 67.4167 41.6921 66.787C28.4844 55.2176 14.8452 44.3266 1.34977 33.174C1.70941 32.8769 1.74987 32.8237 1.80382 32.8015C1.85327 32.7793 1.91621 32.7749 1.97465 32.7704C2.03309 32.766 2.10053 32.7616 2.15448 32.7793C2.26686 32.8192 2.38374 32.8547 2.48264 32.9212C2.63099 33.0232 2.76583 33.143 2.90519 33.2583C15.8881 43.9807 28.871 54.7032 41.7505 65.3458C43.9128 62.7162 46.1516 59.9314 48.4578 57.2042C55.0796 49.3686 61.7328 41.5551 68.3726 33.7327C68.5615 33.511 68.7098 33.2494 68.9076 32.9611C55.5426 22.4338 42.2271 11.9464 28.8576 1.41902C27.8371 2.49659 26.9155 3.43225 26.0389 4.40783C22.1863 8.70036 18.3292 12.984 14.5125 17.3076C10.3048 22.079 6.14642 26.8948 1.95665 31.6796C0.976637 32.8015 0.976626 34.1762 0.877726 35.5243C0.81479 36.3668 0.864268 37.2137 0.626009 38.043C-0.00785197 35.644 -0.623707 33.2583 1.26888 31.0809C4.25837 27.6398 7.19386 24.1544 10.2058 20.7266C13.6898 16.7577 17.2143 12.82 20.7477 8.89106C22.8336 6.57185 24.9869 4.31029 27.0728 1.98664C27.5448 1.45895 27.8506 0.789329 28.3496 0C28.6013 0.133033 29.0373 0.292681 29.3835 0.563182C34.4858 4.58521 39.5747 8.63386 44.6771 12.6603C49.1096 16.1591 53.5152 19.6889 58.0106 23.1078C61.072 25.4359 64.2773 27.5866 67.4017 29.8393C67.8872 30.1896 68.5885 30.3227 68.4131 31.3115C68.3367 31.7018 69.2538 32.2605 70 33.0321Z" fill="#024D99"/>
<path d="M28.8305 31.8835C26.7042 30.7483 24.861 29.7683 23.0179 28.7883C22.5953 28.5621 22.1548 28.3582 21.7637 28.0877C19.5474 26.5401 19.3901 24.8461 21.2602 22.8817C22.5504 21.5292 24.2452 21.7997 25.0543 23.5025C25.2252 23.8572 25.2836 24.2652 25.4095 24.7042C25.931 24.3539 26.3625 24.039 26.8166 23.7597C27.9 23.0945 29.0014 23.1034 30.0399 23.8218C31.1233 24.5756 31.5728 25.6488 31.3031 26.9392C30.9119 28.8415 29.6982 30.327 28.8305 31.8835ZM24.4295 27.6309C24.3171 27.1165 24.2317 26.9037 24.2272 26.6864C24.2092 25.8527 24.3036 25.0057 24.1913 24.1854C24.0204 22.9659 22.9954 22.6067 22.1278 23.4625C20.3836 25.1875 20.6623 26.407 22.3616 27.3693C24.2856 28.4557 26.2996 29.3914 28.2417 30.3803C29.7162 28.8726 30.3725 27.4004 30.2062 26.0523C29.9904 24.283 28.4979 23.5956 27.0908 24.7131C26.4075 25.2541 25.9669 26.0878 25.3915 26.7662C25.1667 27.0367 24.87 27.2407 24.4295 27.6309Z" fill="#024D99"/>
<path d="M21.1973 43.9497C18.9945 41.5418 16.7827 39.1383 14.6024 36.7127C14.3327 36.4111 14.1754 35.9943 14.0225 35.6129C13.2088 33.5775 14.4226 31.9501 16.6164 32.2073C17.6863 32.3315 18.7293 32.6641 19.7902 32.8681C20.2397 32.9567 20.7028 32.97 21.1613 33.0144C21.3142 33.0277 21.5929 33.001 21.6064 33.0498C22.0289 34.4821 23.454 34.4822 24.4924 34.8103C25.5084 35.1341 25.7961 35.6618 25.8636 36.8103C24.2002 36.0742 22.6448 35.3868 20.9186 34.6241C19.997 36.1495 19.0844 37.6572 18.1943 39.125C19.3676 40.8145 21.1838 41.7901 21.6918 43.6437C21.5254 43.7501 21.3636 43.8477 21.1973 43.9497ZM20.1363 34.0254C18.7023 33.6751 17.6189 33.2982 16.504 33.1651C15.0115 32.9833 14.3552 33.8924 14.9036 35.2449C15.4251 36.5265 16.2433 37.5907 17.475 38.4155C18.3336 37.0098 19.1473 35.6573 20.1363 34.0254Z" fill="#024D99"/>
<path d="M38.8825 14.6425C40.0108 16.7533 39.5972 18.7842 37.9159 20.0968C35.4074 22.0524 32.5349 22.0436 30.476 20.2255C28.4305 18.4206 27.936 15.3697 29.3656 13.0594C30.1118 11.8577 31.456 11.2457 32.6697 11.6759C31.5369 12.514 30.1388 13.0018 29.7342 14.4474C29.5903 14.9618 29.3476 15.4895 29.388 15.995C29.442 16.6912 29.6308 17.4051 29.9275 18.0437C30.7862 19.8973 32.7911 20.9349 34.6657 20.5802C37.5473 20.0392 38.6352 18.567 38.8825 14.6425Z" fill="#024D99"/>
</svg>
